<?xml version="1.0" standalone="no"?>
<!DOCTYPE svg PUBLIC "-//W3C//DTD SVG 20010904//EN"
 "http://www.w3.org/TR/2001/REC-SVG-20010904/DTD/svg10.dtd">
<svg version="1.0" xmlns="http://www.w3.org/2000/svg"
 width="500.000000pt" height="500.000000pt" viewBox="0 0 500.000000 500.000000"
 preserveAspectRatio="xMidYMid meet">

<g transform="translate(0.000000,500.000000) scale(0.100000,-0.100000)"
fill="#000000" stroke="none">
<path d="M3018 4783 c7 -3 16 -2 19 1 4 3 -2 6 -13 5 -11 0 -14 -3 -6 -6z"/>
<path d="M3130 4756 c133 -41 134 -42 65 -55 -92 -18 -184 -50 -255 -88 -88
-48 -160 -95 -160 -105 0 -4 -7 -8 -15 -8 -8 0 -15 -4 -15 -10 0 -6 9 -6 23
-1 16 6 33 2 62 -13 22 -11 42 -24 43 -28 2 -5 10 -8 17 -8 18 0 115 -60 115
-71 0 -5 9 -9 20 -9 11 0 40 -16 66 -35 25 -19 57 -38 71 -41 14 -4 34 -15 44
-25 10 -10 31 -24 46 -32 27 -15 30 -13 118 54 50 37 95 68 100 69 15 0 0 167
-20 213 -24 57 -84 118 -144 144 -60 27 -214 73 -240 72 -9 0 18 -10 59 -23z"/>
<path d="M3648 4403 c12 -2 32 -2 45 0 12 2 2 4 -23 4 -25 0 -35 -2 -22 -4z"/>
<path d="M3753 4403 c9 -2 25 -2 35 0 9 3 1 5 -18 5 -19 0 -27 -2 -17 -5z"/>
<path d="M3545 4370 c-3 -6 1 -7 9 -4 18 7 21 14 7 14 -6 0 -13 -4 -16 -10z"/>
<path d="M4273 3849 c-48 -9 -106 -37 -183 -89 -60 -41 -130 -112 -130 -133 0
-7 33 -32 74 -55 41 -23 88 -58 105 -77 17 -19 37 -35 44 -35 8 0 20 -7 27
-15 6 -8 21 -17 33 -21 46 -14 116 -65 119 -87 2 -14 10 1 25 43 68 202 82
417 30 458 -17 14 -95 20 -144 11z"/>
<path d="M4683 2818 c-59 -52 -81 -80 -100 -127 -13 -34 -14 -46 -5 -49 7 -2
18 -9 25 -15 17 -15 44 -32 85 -53 18 -9 41 -27 51 -40 l18 -23 23 57 c28 72
41 259 19 273 -30 19 -78 9 -116 -23z"/>
<path d="M4777 2051 c-12 -20 -14 -30 -6 -33 9 -3 9 -17 -1 -57 -20 -83 -5
-70 19 17 11 43 21 84 21 90 0 21 -15 13 -33 -17z"/>
<path d="M598 1478 c-44 -48 -106 -144 -113 -179 -6 -25 -3 -34 16 -47 78 -57
225 -56 351 1 l46 21 -64 33 c-36 19 -79 44 -97 56 -18 12 -56 33 -85 47 -28
14 -51 30 -52 36 0 6 9 23 21 38 29 37 14 33 -23 -6z"/>
<path d="M2080 712 c-36 -27 -123 -88 -195 -137 -199 -136 -302 -213 -309
-232 -4 -9 -1 -22 6 -29 16 -16 88 -35 88 -24 0 5 30 12 68 16 83 9 154 32
251 85 106 57 146 88 131 103 -9 8 -14 8 -17 -1 -7 -18 -23 -16 -23 3 0 9 -9
18 -20 21 -11 3 -20 9 -20 14 0 5 -8 9 -19 9 -10 0 -24 7 -31 15 -7 8 -22 15
-34 15 -18 0 -14 7 24 43 25 24 73 64 108 91 53 40 71 57 60 56 -2 -1 -32 -22
-68 -48z"/>
<path d="M2970 514 c0 -9 -24 -44 -53 -78 -91 -106 -164 -200 -182 -235 -14
-29 -15 -35 -3 -47 16 -16 88 -7 90 11 1 6 29 25 62 44 81 45 218 136 239 159
17 18 14 57 -3 47 -14 -8 -38 5 -43 24 -4 16 -56 37 -79 32 -12 -2 -10 13 3
26 6 6 8 16 5 22 -11 17 -36 13 -36 -5z"/>
</g>
</svg>
