<?xml version="1.0" standalone="no"?>
<!DOCTYPE svg PUBLIC "-//W3C//DTD SVG 1.1//EN" "http://www.w3.org/Graphics/SVG/1.1/DTD/svg11.dtd">
<svg xmlns="http://www.w3.org/2000/svg" width="225" height="60" viewBox="0 0 225 60" fill="none">
  <rect x="165" width="60" height="60" rx="30" fill="url(#paint0_linear_836_4576)"/>
  <path fill-rule="evenodd" clip-rule="evenodd" d="M208.417 22.161L208.38 22.0909C207.695 20.954 205.398 19.1828 202.227 17.3539C199.056 15.5249 196.34 14.4045 195.028 14.4004H194.995C193.682 14.4004 190.995 15.5249 187.808 17.3745C184.621 19.224 182.299 21.0282 181.655 22.1651C180.97 23.3267 180.601 26.1566 180.601 29.9174C180.601 33.6247 180.974 36.4093 181.614 37.608L181.643 37.6574V37.6821C182.295 38.8108 184.6 40.5985 187.796 42.4563C190.991 44.314 193.695 45.4221 195.003 45.4262C196.312 45.4303 199.019 44.3099 202.223 42.448C205.427 40.5861 207.707 38.8273 208.376 37.6698C208.374 37.6589 208.374 37.6477 208.376 37.6368C209.077 36.5081 209.459 33.6247 209.459 29.9174C209.459 26.2101 209.065 23.302 208.417 22.161ZM179.384 24.8666C179.565 23.5194 179.856 22.2699 180.356 21.4143C180.838 20.5714 181.785 19.6869 182.856 18.8532C183.983 17.9766 185.42 17.0259 187.055 16.0771C188.688 15.1296 190.217 14.3531 191.529 13.8085C192.784 13.2877 194.02 12.9004 194.995 12.9004H195.028H195.032V12.9004C196.002 12.9034 197.241 13.2878 198.501 13.8054C199.817 14.3464 201.35 15.1165 202.976 16.0545C204.603 16.9927 206.029 17.9291 207.151 18.7935C208.229 19.624 209.169 20.4932 209.665 21.3168L209.687 21.3535L209.707 21.3914L209.734 21.4432C210.203 22.2822 210.487 23.5327 210.668 24.8767C210.858 26.2928 210.959 28.0161 210.959 29.9174C210.959 31.816 210.862 33.5359 210.666 34.9493C210.517 36.0306 210.294 37.0666 209.939 37.8743L209.951 37.9416L209.675 38.4201C209.185 39.2679 208.245 40.1459 207.169 40.9803C206.047 41.8497 204.617 42.7915 202.977 43.7449C201.334 44.6995 199.794 45.4785 198.475 46.0233C197.213 46.5441 195.972 46.9293 194.998 46.9262C194.032 46.9232 192.798 46.5426 191.536 46.0235C190.219 45.4813 188.682 44.7064 187.042 43.753C185.404 42.8007 183.97 41.8526 182.846 40.981C181.771 40.147 180.826 39.2679 180.344 38.4326L180.143 38.0844V38.0105C179.776 37.1871 179.538 36.0936 179.38 34.9002C179.196 33.5078 179.101 31.816 179.101 29.9174C179.101 27.9943 179.195 26.2759 179.384 24.8666ZM194.314 26.8282H196.025H196.025C196.491 26.8282 196.938 27.0137 197.269 27.344C197.6 27.6744 197.786 28.1229 197.789 28.5912V32.9781H196.706V31.1163H193.662V32.9781H192.562V28.5912C192.562 28.1243 192.747 27.6765 193.075 27.346C193.404 27.0155 193.849 26.8293 194.314 26.8282ZM193.853 28.1266C193.73 28.2501 193.662 28.4171 193.662 28.5912V30.0164H196.706V28.5912C196.707 28.5041 196.69 28.4178 196.656 28.3376C196.622 28.2575 196.572 28.1853 196.509 28.1257C196.448 28.0634 196.375 28.0142 196.295 27.9809C196.214 27.9476 196.128 27.931 196.041 27.9321H194.314C194.141 27.9332 193.975 28.0031 193.853 28.1266ZM187.41 26.8487H184.047V33.0275H187.41C188.048 33.0275 188.659 32.7732 189.11 32.3205C189.561 31.8678 189.814 31.2539 189.814 30.6137V29.2584C189.812 28.6193 189.558 28.007 189.108 27.5555C188.657 27.1039 188.047 26.8498 187.41 26.8487ZM185.167 27.9733H187.41C187.75 27.9733 188.075 28.1087 188.315 28.3497C188.555 28.5907 188.69 28.9176 188.69 29.2584V30.6301C188.69 30.9714 188.556 31.2987 188.316 31.5404C188.076 31.782 187.75 31.9184 187.41 31.9195H185.167V27.9733ZM205.029 26.8693H205.989H206.075V26.9516V32.8998V32.9822H205.989H205.254H205.217L205.193 32.9533L201.952 28.9742V32.9039V32.9863H201.87H200.906H200.824V32.9039V26.9516V26.8693H200.906H201.657H201.694L201.718 26.8981L204.947 30.8196V26.9516V26.8693H205.029Z" fill="white"/>
  <rect x="110" width="60" height="60" rx="30" fill="url(#paint1_linear_836_4576)"/>
  <path d="M156.8 29.9715H123.2L139.972 46.7431L156.8 29.9715Z" fill="#E2E2E9"/>
  <path d="M139.969 13.2V46.8L123.254 30.0284L139.969 13.2Z" fill="#E2E2E9"/>
  <rect x="55" width="60" height="60" rx="30" fill="url(#paint2_linear_836_4576)"/>
  <path fill-rule="evenodd" clip-rule="evenodd" d="M93.7772 23.88H94.3984C95.7352 23.8602 97.0578 24.1454 98.2582 24.7124C99.4586 25.2794 100.503 26.112 101.305 27.1422C102.107 28.1723 102.645 29.3708 102.874 30.6395C103.104 31.9083 103.018 33.2113 102.625 34.4421C102.231 35.6728 101.541 36.7964 100.61 37.7209C99.679 38.6453 98.5343 39.3445 97.2693 39.7611C96.0043 40.1778 94.6549 40.3001 93.3314 40.1181C92.0079 39.9361 90.7479 39.4549 89.6544 38.714V39.5663H86.2V16.2H89.6356V25.2854C90.8615 24.4697 92.2913 23.9845 93.7772 23.88ZM99.2554 32.7658V32.6208C99.2699 32.4125 99.2699 32.2034 99.2554 31.9951C99.2191 30.7865 98.6993 29.6381 97.8048 28.7899C96.9102 27.9417 95.71 27.4592 94.4549 27.4434C94.2887 27.4351 94.1222 27.4351 93.956 27.4434C93.1243 27.5264 92.3288 27.8144 91.6462 28.2798C90.9636 28.7451 90.4171 29.372 90.0592 30.1001C89.7645 30.7012 89.6069 31.3562 89.5972 32.021C89.5874 32.6857 89.7257 33.3447 90.0027 33.9537C90.0921 34.1538 90.1959 34.3477 90.3133 34.534C90.5507 34.8995 90.8389 35.232 91.1699 35.5223C91.499 35.8045 91.8663 36.0424 92.2618 36.2295H92.3559C92.7481 36.4032 93.1629 36.5252 93.5889 36.5922H93.7395C93.9579 36.6217 94.178 36.6369 94.3984 36.6376C94.574 36.6469 94.75 36.6469 94.9255 36.6376H95.0291L95.4903 36.565C96.2229 36.4167 96.9104 36.1082 97.4995 35.6632C98.0887 35.2183 98.5639 34.6489 98.8883 33.999V33.9264C98.9805 33.7354 99.0592 33.5385 99.1236 33.3371C99.1799 33.1495 99.2239 32.9587 99.2554 32.7658ZM76.9091 36.0685C77.8416 35.5867 78.5905 34.7802 79.0309 33.7833H79.0836H82.6C82.143 35.7801 81.0125 37.5298 79.4224 38.7012C77.8323 39.8727 75.8929 40.3847 73.9711 40.1404C72.0494 39.8961 70.2787 38.9124 68.9941 37.3754C67.7094 35.8385 67 33.8549 67 31.8C67 29.7452 67.7094 27.7616 68.9941 26.2246C70.2787 24.6877 72.0494 23.7039 73.9711 23.4596C75.8929 23.2153 77.8323 23.7273 79.4224 24.8988C81.0125 26.0703 82.143 27.8199 82.6 29.8167H79.0836C78.6699 28.807 77.9427 27.9784 77.0234 27.4689C76.1041 26.9593 75.048 26.7996 74.0312 27.0163C73.0145 27.233 72.0983 27.8131 71.4355 28.6599C70.7726 29.5068 70.4031 30.5691 70.3885 31.6701C70.3738 32.7711 70.715 33.8441 71.355 34.7104C71.9951 35.5768 72.8955 36.1841 73.9061 36.4312C74.9167 36.6783 75.9766 36.5503 76.9091 36.0685Z" fill="white"/>
  <rect width="60" height="60" rx="30" fill="url(#paint3_linear_836_4576)"/>
  <path d="M31.2019 34.5383C33.4617 34.5383 35.2936 32.6803 35.2936 30.3883C35.2936 28.0963 33.4617 26.2383 31.2019 26.2383C28.9421 26.2383 27.1102 28.0963 27.1102 30.3883C27.1102 32.6803 28.9421 34.5383 31.2019 34.5383Z" fill="#E2E2E9"/>
  <path d="M31.417 37.2838C33.2013 37.2838 34.8319 36.6597 36.0624 35.5364L36.9239 34.7563L40.8002 38.6255L39.8773 39.4992C37.6622 41.5898 34.6473 42.7443 31.417 42.7443C29.7998 42.7742 28.1933 42.4721 26.6941 41.8562C25.1949 41.2403 23.834 40.3233 22.6931 39.1604C21.5522 37.9974 20.655 36.6125 20.0553 35.0889C19.4556 33.5653 19.1658 31.9344 19.2034 30.2943C19.2034 23.18 24.3411 18.0003 31.417 18.0003C34.5125 17.979 37.5055 19.1243 39.8157 21.2142L40.7694 22.0879L36.9546 25.9571L36.0932 25.2082C34.8319 24.0849 33.1706 23.492 31.417 23.492C27.3868 23.492 24.5872 26.3003 24.5872 30.3255C24.5575 31.2448 24.7136 32.1605 25.0459 33.0163C25.3782 33.8721 25.8796 34.6498 26.5194 35.3017C27.1592 35.9535 27.9238 36.4656 28.7661 36.8065C29.6084 37.1474 30.5105 37.3098 31.417 37.2838Z" fill="#E2E2E9"/>
  <defs>
    <linearGradient id="paint0_linear_836_4576" x1="165" y1="60" x2="233.456" y2="47.9208" gradientUnits="userSpaceOnUse">
      <stop stop-color="white" stop-opacity="0"/>
      <stop offset="1" stop-color="white" stop-opacity="0.3"/>
    </linearGradient>
    <linearGradient id="paint1_linear_836_4576" x1="110" y1="60" x2="178.456" y2="47.9208" gradientUnits="userSpaceOnUse">
      <stop stop-color="white" stop-opacity="0"/>
      <stop offset="1" stop-color="white" stop-opacity="0.3"/>
    </linearGradient>
    <linearGradient id="paint2_linear_836_4576" x1="55" y1="60" x2="123.456" y2="47.9208" gradientUnits="userSpaceOnUse">
      <stop stop-color="white" stop-opacity="0"/>
      <stop offset="1" stop-color="white" stop-opacity="0.3"/>
    </linearGradient>
    <linearGradient id="paint3_linear_836_4576" x1="-8.9407e-07" y1="60" x2="68.4558" y2="47.9208" gradientUnits="userSpaceOnUse">
      <stop stop-color="white" stop-opacity="0"/>
      <stop offset="1" stop-color="white" stop-opacity="0.3"/>
    </linearGradient>
  </defs>
</svg>